<svg xmlns="http://www.w3.org/2000/svg" viewBox="0 0 607 607"><path d="M0 0v607h607V0H0z" fill="#fff"/><path d="M315.228 131.758C310.338 133.856 312 142.792 312 147v45c0 4.365-.45 14.3 6.957 12.149C325.185 202.34 324 193.919 324 189v-47c-.01-4.931-1.509-13.358-8.772-10.242m156.814 19.039c-5.322 1.74-7.84 9.718-10.209 14.203-7.158 13.559-15.806 26.871-21.789 41-1.898 4.483-.929 12.066 5.941 10.149 5.473-1.528 8.126-9.658 10.555-14.149 4.271-7.896 8.148-16.001 12.537-23.83 3.406-6.077 7.976-12.506 10.093-19.169 1.44-4.533-1.891-9.916-7.128-8.204m-308.724 44.232c-6.304 4.151 1.639 11.906 4.683 14.971A7190.342 7190.342 0 00199 240.999c3.536 3.518 9.1 10.208 14.771 6.818 6.865-4.104-.745-11.113-4.026-14.393l-31.885-31.997c-3.352-3.341-9.23-9.897-14.542-6.398M296 414c-.338 8.68 11.574 5.786 17 4.103 18.225-5.653 36.709-13.9 54-21.939 9.419-4.38 20.898-8.936 28.811-15.774 3.717-3.212 2.915-7.562 5.676-11.065 3.094-3.927 7.855-6.179 10.9-10.326 3.54-4.821 2.855-12.369 6.93-16.389 5.8-5.723 14.872-9.242 21.683-13.689 15.303-9.992 30.808-21.245 43.996-33.921 10.516-10.107 29.144-25.603 27.61-41.985-1.13-12.07-20.403-9.76-28.606-9.101-29.013 2.332-58.376 10.916-86 19.742-24.528 7.837-49.087 15.671-73 25.266-47.794 19.177-94.196 43.106-139.004 68.387-16.719 9.433-34.688 20.561-47.826 34.731-5.43 5.856-11.489 13.421-10.891 21.945.378 5.397 5.079 7.575 9.721 8.855 9.815 2.708 19.932 2.16 30 2.16 20.588 0 40.738-1.961 61-5.614 9.611-1.733 19.307-5.39 29-6.365 5.566-.56 11.327 3.305 17 3.805 7.189.633 14.977-1.464 22-2.826m-39-99c8.04-1.822 15.487-6.796 23-10.139 16.204-7.211 32.466-14.509 49-20.922 7.27-2.82 14.335-6.336 22-7.939-8.145-3.914-19.434-2.155-28-.614-18.82 3.386-37.226 10.159-51.985 22.758-5.52 4.712-11.155 10.098-14.015 16.856m-174.772 2.028c-4.547 2.786-3.037 9.356 1.816 10.654 4.825 1.291 10.985.318 15.956.318h34c4.517 0 12.914 1.593 16.566-1.603 4.181-3.661 1.254-9.472-3.581-10.249C132.111 313.76 115.077 316 100 316c-4.907 0-13.449-1.621-17.772 1.028z" fill="#030303"/></svg>
